<svg xmlns="http://www.w3.org/2000/svg" width="20.733" height="20.733" viewBox="0 0 32.733 32.733">
    <g transform="translate(6.171 9.317)">
        <path d="M100.226,145.733H97.157a.639.639,0,0,0-.639.639v3.58a.639.639,0,0,0,.639.639h3.069a.639.639,0,0,0,.639-.639v-3.58A.639.639,0,0,0,100.226,145.733Zm-.639,3.58H97.8v-2.3h1.79Z" transform="translate(-96.518 -145.733)"/>
    </g>
    <g transform="translate(6.171 16.477)">
        <path d="M100.226,257.733H97.157a.639.639,0,0,0-.639.639v3.58a.639.639,0,0,0,.639.639h3.069a.639.639,0,0,0,.639-.639v-3.58A.639.639,0,0,0,100.226,257.733Zm-.639,3.58H97.8v-2.3h1.79Z" transform="translate(-96.518 -257.733)"/>
    </g>
    <g transform="translate(6.171 23.638)">
        <path d="M100.226,369.733H97.157a.639.639,0,0,0-.639.639v3.58a.639.639,0,0,0,.639.639h3.069a.639.639,0,0,0,.639-.639v-3.58A.639.639,0,0,0,100.226,369.733Zm-.639,3.58H97.8v-2.3h1.79Z" transform="translate(-96.518 -369.733)"/>
    </g>
    <g transform="translate(22.855 23.638)">
        <path d="M361.205,369.733h-3.069a.639.639,0,0,0-.639.639v3.58a.639.639,0,0,0,.639.639h3.069a.639.639,0,0,0,.639-.639v-3.58A.639.639,0,0,0,361.205,369.733Zm-.639,3.58h-1.79v-2.3h1.79Z" transform="translate(-357.497 -369.733)"/>
    </g>
    <g transform="translate(11.732 9.317)">
        <path d="M187.219,145.733H184.15a.639.639,0,0,0-.639.639v3.58a.639.639,0,0,0,.639.639h3.069a.639.639,0,0,0,.639-.639v-3.58A.639.639,0,0,0,187.219,145.733Zm-.639,3.58h-1.79v-2.3h1.79Z" transform="translate(-183.511 -145.733)"/>
    </g>
    <g transform="translate(17.294 9.317)">
        <path d="M274.211,145.733h-3.069a.639.639,0,0,0-.639.639v3.58a.639.639,0,0,0,.639.639h3.069a.639.639,0,0,0,.639-.639v-3.58A.639.639,0,0,0,274.211,145.733Zm-.639,3.58h-1.79v-2.3h1.79Z" transform="translate(-270.503 -145.733)"/>
    </g>
    <g transform="translate(11.732 16.477)">
        <path d="M187.219,257.733H184.15a.639.639,0,0,0-.639.639v3.58a.639.639,0,0,0,.639.639h3.069a.639.639,0,0,0,.639-.639v-3.58A.639.639,0,0,0,187.219,257.733Zm-.639,3.58h-1.79v-2.3h1.79Z" transform="translate(-183.511 -257.733)"/>
    </g>
    <g transform="translate(17.294 16.477)">
        <path d="M274.211,257.733h-3.069a.639.639,0,0,0-.639.639v3.58a.639.639,0,0,0,.639.639h3.069a.639.639,0,0,0,.639-.639v-3.58A.639.639,0,0,0,274.211,257.733Zm-.639,3.58h-1.79v-2.3h1.79Z" transform="translate(-270.503 -257.733)"/>
    </g>
    <g transform="translate(22.855 9.317)">
        <path d="M361.205,145.733h-3.069a.639.639,0,0,0-.639.639v3.58a.639.639,0,0,0,.639.639h3.069a.639.639,0,0,0,.639-.639v-3.58A.639.639,0,0,0,361.205,145.733Zm-.639,3.58h-1.79v-2.3h1.79Z" transform="translate(-357.497 -145.733)"/>
    </g>
    <g transform="translate(22.855 16.477)">
        <path d="M361.205,257.733h-3.069a.639.639,0,0,0-.639.639v3.58a.639.639,0,0,0,.639.639h3.069a.639.639,0,0,0,.639-.639v-3.58A.639.639,0,0,0,361.205,257.733Zm-.639,3.58h-1.79v-2.3h1.79Z" transform="translate(-357.497 -257.733)"/>
    </g>
    <path d="M32.094,31.455H29.7V6.653a.639.639,0,0,0-.639-.639H25.508V3.708a.639.639,0,0,0-.639-.639H21.353V.639A.639.639,0,0,0,20.714,0H12.019a.639.639,0,0,0-.639.639V3.069H7.865a.639.639,0,0,0-.639.639V6.014H3.677a.639.639,0,0,0-.639.639v24.8H.639a.639.639,0,1,0,0,1.279H32.094a.639.639,0,1,0,0-1.279ZM12.659,1.279h7.416v1.79H12.659Zm6.393,30.176H14.628l4.424-4.424Zm0-6.228c-.014.012-.028.024-.042.038l-5.329,5.329v-2.71l4.1-4.1h1.269Zm-5.37.848V23.783h2.292Zm14.736,5.379H20.33V23.783h.224a.639.639,0,1,0,0-1.279H12.179a.639.639,0,1,0,0,1.279H12.4v7.672H4.316V7.292h7.1a.639.639,0,1,0,0-1.279H8.5V4.347H24.229V6.014H16.464a.639.639,0,1,0,0,1.279H28.417V31.455Z"/>
    <g transform="translate(13.267 6.013)">
        <path d="M208.6,94.247a.639.639,0,1,0,.187.452A.644.644,0,0,0,208.6,94.247Z" transform="translate(-207.51 -94.06)"/>
    </g>
</svg>